<svg xmlns="http://www.w3.org/2000/svg" viewBox="0 0 360 360"><defs><style>.cls-1{fill:#2e3192;}.cls-2{fill:#fff;}</style></defs><g id="Layer_2" data-name="Layer 2"><g id="Layer_1-2" data-name="Layer 1"><rect class="cls-1" width="360" height="360"/><path class="cls-2" d="M128.23,137.44,111.63,147a6.29,6.29,0,0,0,0,10.87l16.6,9.58,60.36,34.86a6.81,6.81,0,0,1,0,11.8L84.45,274.27V127.66a17.27,17.27,0,0,1,8.67-15L249.53,22.33a17.34,17.34,0,0,1,26,15.13v5a17.32,17.32,0,0,1-8.67,15Z"/><path class="cls-2" d="M275.55,82.43v149.8a17.34,17.34,0,0,1-8.67,15.13L110.5,337.66a17.34,17.34,0,0,1-26-15v-8.2a17.35,17.35,0,0,1,8.67-15.13l131.74-76,15.79-9.08a6.81,6.81,0,0,0,0-11.8l-15.79-9.11L163.67,158a6.28,6.28,0,0,1,0-10.87Z"/></g></g></svg>