<svg xmlns="http://www.w3.org/2000/svg" viewBox="0 0 360 360"><defs><style>.cls-1{fill:#2e3192;}.cls-2{fill:#fff;}</style></defs><g id="Layer_2" data-name="Layer 2"><g id="Layer_1-2" data-name="Layer 1"><rect class="cls-1" width="360" height="360"/><path class="cls-2" d="M141.17,148.08l-12.44,7.19a4.71,4.71,0,0,0-1.72,6.44,4.63,4.63,0,0,0,1.72,1.71l12.44,7.19,45.27,26.14a5.11,5.11,0,0,1,0,8.86l-78.11,45.1v-110a13,13,0,0,1,6.51-11.25l117.3-67.74A13,13,0,0,1,251.67,73.1v3.78a13,13,0,0,1-6.51,11.25Z"/><path class="cls-2" d="M251.67,106.82V219.17a13,13,0,0,1-6.51,11.35L127.87,298.24A13,13,0,0,1,108.33,287v-6.15a13,13,0,0,1,6.51-11.35l98.8-57,11.85-6.81a5.12,5.12,0,0,0,0-8.86L213.64,190l-45.89-26.48A4.72,4.72,0,0,1,166,157a4.78,4.78,0,0,1,1.72-1.71Z"/></g></g></svg>