<svg xmlns="http://www.w3.org/2000/svg" viewBox="0 0 143.33 240"><defs><style>.cls-1{fill:#fff;}</style></defs><g id="Layer_2" data-name="Layer 2"><g id="Layer_1-2" data-name="Layer 1"><path class="cls-1" d="M32.84,88.08,20.39,95.27a4.71,4.71,0,0,0,0,8.15l12.45,7.19,45.27,26.14a5.11,5.11,0,0,1,0,8.86L0,190.71v-110A13,13,0,0,1,6.51,69.49L123.81,1.75A13,13,0,0,1,143.33,13.1v3.78a13,13,0,0,1-6.5,11.25Z"/><path class="cls-1" d="M143.33,46.82V159.17a13,13,0,0,1-6.5,11.35L19.54,238.24A13,13,0,0,1,0,227v-6.15a13,13,0,0,1,6.51-11.35l98.8-57,11.84-6.81a5.11,5.11,0,0,0,0-8.86L105.31,130,59.42,103.48a4.7,4.7,0,0,1,0-8.15Z"/></g></g></svg>