<svg xmlns="http://www.w3.org/2000/svg" viewBox="0 0 832.7 199.97"><defs><style>.cls-1{fill:#029648;}.cls-2{fill:#322f81;}.cls-3{fill:#f29220;}</style></defs><g id="Layer_2" data-name="Layer 2"><g id="Layer_1-2" data-name="Layer 1"><path class="cls-1" d="M27.38,73.41,17,79.4a3.93,3.93,0,0,0-1.43,5.37A3.85,3.85,0,0,0,17,86.2l10.38,6L65.11,114a4.26,4.26,0,0,1,1.56,5.82,4.17,4.17,0,0,1-1.56,1.56L0,159V67.29A10.86,10.86,0,0,1,5.42,57.9L103.2,1.45a10.85,10.85,0,0,1,16.27,9.39V14a10.86,10.86,0,0,1-5.42,9.4Z"/><path class="cls-2" d="M119.47,39v93.65a10.85,10.85,0,0,1-5.42,9.39L16.27,198.51A10.85,10.85,0,0,1,0,189.12V184a10.86,10.86,0,0,1,5.42-9.39l82.35-47.54,9.88-5.71a4.25,4.25,0,0,0,1.56-5.82A4.32,4.32,0,0,0,97.65,114l-9.88-5.7L49.53,86.2a3.91,3.91,0,0,1-1.45-5.35,4,4,0,0,1,1.45-1.45Z"/><path class="cls-1" d="M181,142.53q-11.55-8.33-12.53-24.43h33q.71,8.55,7.56,8.54a7.35,7.35,0,0,0,4.27-1.19,4.16,4.16,0,0,0,1.75-3.71q0-3.48-3.78-5.66a74.7,74.7,0,0,0-11.76-5,124.52,124.52,0,0,1-15.74-6.58,30.4,30.4,0,0,1-10.71-9.38Q168.58,89,168.72,79.3a27.11,27.11,0,0,1,5-16.44A30.67,30.67,0,0,1,187.3,52.57a51.14,51.14,0,0,1,19.38-3.5q18.19,0,28.9,8.4t11.27,23.65H213.36c-.1-2.79-.8-4.8-2.1-6a6.73,6.73,0,0,0-4.76-1.82,4.25,4.25,0,0,0-3.22,1.33A5.21,5.21,0,0,0,202,78.36c0,2.23,1.24,4.08,3.71,5.52a82.7,82.7,0,0,0,11.83,5.25A137.53,137.53,0,0,1,233,95.85a32.72,32.72,0,0,1,10.57,9q4.49,5.75,4.48,14.41a29.38,29.38,0,0,1-17.5,27.58q-8.53,4.07-20.29,4.06Q192.52,150.87,181,142.53Z"/><path class="cls-1" d="M318.05,50.78v99.1H287V50.78Z"/><path class="cls-1" d="M428.55,57.08a44.21,44.21,0,0,1,18,17.5,50.94,50.94,0,0,1,6.3,25.47,51.58,51.58,0,0,1-6.3,25.47,45.39,45.39,0,0,1-18,17.85q-11.69,6.51-27.22,6.51H360V50.78h41.29Q416.88,50.78,428.55,57.08Zm-13.36,59.35q6.15-5.73,6.16-16.38t-6.16-16.38Q409,78,398.53,78h-7.42V122.2h7.42Q409,122.17,415.19,116.43Z"/><path class="cls-3" d="M523.1,75.56V87.73h30.79v23.38H523.1v14h35v24.77H492V50.78h66.06V75.56Z"/><path class="cls-3" d="M657.75,149.88l-28.84-43v43H597.84V50.78h31.07V92.49l28.42-41.71h35.13L658.31,98.23l36.39,51.65Z"/><path class="cls-3" d="M795.05,134.9H762l-4.9,15H724.51l36.25-99.1h35.83l36.11,99.1H800Zm-7.56-23.37-9-27.58-9,27.58Z"/></g></g></svg>