<svg xmlns="http://www.w3.org/2000/svg" viewBox="0 0 832.73 199.97"><defs><style>.cls-1{fill:#231f20;}</style></defs><g id="Layer_2" data-name="Layer 2"><g id="Layer_1-2" data-name="Layer 1"><path class="cls-1" d="M27.38,73.41,17,79.4a3.93,3.93,0,0,0-1.43,5.37A3.85,3.85,0,0,0,17,86.2l10.38,6L65.11,114a4.26,4.26,0,0,1,1.56,5.82,4.17,4.17,0,0,1-1.56,1.56L0,159V67.29A10.86,10.86,0,0,1,5.42,57.9L103.2,1.45a10.85,10.85,0,0,1,16.27,9.39V14a10.86,10.86,0,0,1-5.42,9.4Z"/><path class="cls-1" d="M119.47,39v93.65a10.85,10.85,0,0,1-5.42,9.39L16.27,198.51A10.85,10.85,0,0,1,0,189.12V184a10.86,10.86,0,0,1,5.42-9.39l82.35-47.54,9.88-5.71a4.25,4.25,0,0,0,1.56-5.82A4.32,4.32,0,0,0,97.65,114l-9.88-5.7L49.53,86.2a3.91,3.91,0,0,1-1.45-5.35,4,4,0,0,1,1.45-1.45Z"/><path class="cls-1" d="M181,105.56q-11.55-8.32-12.53-24.42h33q.71,8.53,7.56,8.54a7.43,7.43,0,0,0,4.27-1.19,4.2,4.2,0,0,0,1.7-3.71q0-3.48-3.78-5.67a76.06,76.06,0,0,0-11.76-5,124.52,124.52,0,0,1-15.74-6.58A30.21,30.21,0,0,1,173,58.15q-4.48-6.15-4.34-15.81a27.12,27.12,0,0,1,5-16.45A30.86,30.86,0,0,1,187.25,15.6a51.13,51.13,0,0,1,19.38-3.49q18.19,0,28.9,8.39T246.8,44.16H213.36q-.15-4.2-2.1-6a6.82,6.82,0,0,0-4.76-1.82,4.25,4.25,0,0,0-3.22,1.33A5.18,5.18,0,0,0,202,41.39c0,2.24,1.24,4.09,3.71,5.53a85.52,85.52,0,0,0,11.83,5.25A135.66,135.66,0,0,1,233,58.88a33.07,33.07,0,0,1,10.57,9q4.49,5.75,4.48,14.42a29.38,29.38,0,0,1-17.5,27.57Q222,114,210.26,113.93,192.52,113.9,181,105.56Z"/><path class="cls-1" d="M318.05,13.81v99.1H287V13.81Z"/><path class="cls-1" d="M428.55,20.11a44.21,44.21,0,0,1,18,17.5,51.15,51.15,0,0,1,6.3,25.47,51.62,51.62,0,0,1-6.3,25.48,45.43,45.43,0,0,1-18,17.84q-11.69,6.51-27.22,6.51H360V13.81h41.29Q416.88,13.81,428.55,20.11ZM415.19,79.46q6.15-5.73,6.16-16.38t-6.16-16.37Q409,41,398.53,41h-7.42V85.2h7.42Q409,85.2,415.19,79.46Z"/><path class="cls-1" d="M523.1,38.59V50.77h30.79V74.14H523.1v14h35v24.77H492V13.81h66.06V38.59Z"/><path class="cls-1" d="M657.75,112.91,628.91,70v43H597.84V13.81h31.07V55.52l28.42-41.71h35.13L658.31,61.26l36.39,51.65Z"/><path class="cls-1" d="M795.05,98H762l-4.9,15H724.51l36.25-99.1h35.83L832.7,113H800Zm-7.56-23.37-9-27.57-9,27.57Z"/><path class="cls-1" d="M174.32,171.84a9.63,9.63,0,0,1-4.22-3.21,8.68,8.68,0,0,1-1.67-5.11h7.88a3.52,3.52,0,0,0,3.56,3.48h.21a3.94,3.94,0,0,0,2.59-.76,2.71,2.71,0,0,0,.35-3.83l-.15-.17A6.22,6.22,0,0,0,181,161a31.49,31.49,0,0,0-3.14-1.09,34.4,34.4,0,0,1-4.81-1.81,8.86,8.86,0,0,1-3.2-2.69,7.42,7.42,0,0,1-1.34-4.63,8,8,0,0,1,3.07-6.65,12.67,12.67,0,0,1,8-2.4,12.83,12.83,0,0,1,8.1,2.4,8.63,8.63,0,0,1,3.31,6.73h-8a3.12,3.12,0,0,0-1.09-2.31,3.75,3.75,0,0,0-2.55-.85,3.16,3.16,0,0,0-2.16.72,2.75,2.75,0,0,0-.06,3.88,3.16,3.16,0,0,0,.62.47,22,22,0,0,0,4.33,1.77,41,41,0,0,1,4.78,1.91,9.07,9.07,0,0,1,3.19,2.64,7.08,7.08,0,0,1,1.34,4.46,8.72,8.72,0,0,1-1.32,4.72,9.23,9.23,0,0,1-3.84,3.38,13.18,13.18,0,0,1-5.93,1.25A15.54,15.54,0,0,1,174.32,171.84Z"/><path class="cls-1" d="M196.46,144.8a3.73,3.73,0,0,1-1.23-2.84,3.8,3.8,0,0,1,1.23-2.88,4.56,4.56,0,0,1,3.19-1.14,4.48,4.48,0,0,1,3.14,1.14A3.8,3.8,0,0,1,204,142a3.73,3.73,0,0,1-1.23,2.84,4.43,4.43,0,0,1-3.14,1.15A4.52,4.52,0,0,1,196.46,144.8Zm6.87,3.66v24.16h-7.41V148.46Z"/><path class="cls-1" d="M212.9,171.88a9.59,9.59,0,0,1-3.9-3,7.75,7.75,0,0,1-1.6-4.23h7.31a2.82,2.82,0,0,0,1.17,2,4.11,4.11,0,0,0,2.56.78,3.59,3.59,0,0,0,2.14-.54,1.65,1.65,0,0,0,.58-2.27,1.71,1.71,0,0,0-.9-.73,22.67,22.67,0,0,0-3.51-1.1,31.16,31.16,0,0,1-4.33-1.28,7.39,7.39,0,0,1-3-2.12,5.78,5.78,0,0,1-1.25-3.92,6.72,6.72,0,0,1,1.14-3.79,7.78,7.78,0,0,1,3.38-2.7,13,13,0,0,1,5.3-1,10.73,10.73,0,0,1,7.17,2.25,8.74,8.74,0,0,1,3,6h-6.84a3,3,0,0,0-1.1-2,3.84,3.84,0,0,0-2.45-.74,3.44,3.44,0,0,0-2,.5,1.58,1.58,0,0,0-.7,1.36,1.67,1.67,0,0,0,1.11,1.56,17.16,17.16,0,0,0,3.44,1,39.44,39.44,0,0,1,4.37,1.36,7.46,7.46,0,0,1,3,2.17,6.12,6.12,0,0,1,1.32,4,6.34,6.34,0,0,1-1.19,3.79A7.74,7.74,0,0,1,223.7,172a12.94,12.94,0,0,1-5.18,1A13.7,13.7,0,0,1,212.9,171.88Z"/><path class="cls-1" d="M246.32,166.34v6.28h-3.77a9.19,9.19,0,0,1-6.27-2q-2.25-2-2.25-6.43v-9.61h-2.95v-6.15H234v-5.89h7.4v5.89h4.85v6.15H241.4v9.69a2,2,0,0,0,.52,1.56,2.49,2.49,0,0,0,1.73.48Z"/><path class="cls-1" d="M273.08,162.31H256.32a5.12,5.12,0,0,0,1.45,3.45,4.45,4.45,0,0,0,3.14,1.19,3.9,3.9,0,0,0,3.86-2.34h7.88a10.91,10.91,0,0,1-6.15,7.27,12.71,12.71,0,0,1-5.33,1.08,13,13,0,0,1-6.32-1.51,10.68,10.68,0,0,1-4.33-4.33,14.72,14.72,0,0,1,0-13.16,10.64,10.64,0,0,1,4.31-4.33,14,14,0,0,1,12.6,0,10.57,10.57,0,0,1,4.26,4.2,12.75,12.75,0,0,1,1.54,6.37A19.43,19.43,0,0,1,273.08,162.31Zm-7.45-4.11a3.82,3.82,0,0,0-1.3-3,4.79,4.79,0,0,0-3.24-1.13,4.67,4.67,0,0,0-3.14,1.09,4.81,4.81,0,0,0-1.58,3.07Z"/><path class="cls-1" d="M315.1,151c1.78,1.81,2.66,4.34,2.66,7.57v14.12H310.4V159.5a5,5,0,0,0-1.23-3.62,5.19,5.19,0,0,0-6.8,0,5,5,0,0,0-1.23,3.62v13.12h-7.36V159.5a5,5,0,0,0-1.24-3.62,5.19,5.19,0,0,0-6.8,0,5,5,0,0,0-1.23,3.62v13.12h-7.4V148.46h7.4v3a8,8,0,0,1,2.94-2.4,9.33,9.33,0,0,1,4.12-.89,10.07,10.07,0,0,1,4.87,1.17,8.39,8.39,0,0,1,3.35,3.33,9.86,9.86,0,0,1,3.42-3.25,9.29,9.29,0,0,1,4.72-1.25A9.56,9.56,0,0,1,315.1,151Z"/><path class="cls-1" d="M339.54,142.22v30.4h-7.4v-30.4Z"/><path class="cls-1" d="M366.41,151a10.71,10.71,0,0,1,2.53,7.55v14.12h-7.36V159.5a5.3,5.3,0,0,0-1.26-3.77,4.93,4.93,0,0,0-6.75,0,5.35,5.35,0,0,0-1.26,3.77v13.12h-7.4V148.46h7.4v3.2a7.91,7.91,0,0,1,3-2.53,9.74,9.74,0,0,1,4.28-.93A8.77,8.77,0,0,1,366.41,151Z"/><path class="cls-1" d="M386.22,154.61h-4v18h-7.4v-18h-2.69v-6.15h2.69v-.7q0-4.45,2.55-6.77c1.71-1.55,4.2-2.32,7.49-2.32.41,0,.81,0,1.22.05V145a4.33,4.33,0,0,0-3,.61,3.33,3.33,0,0,0-.87,2.64v.22h4Z"/><path class="cls-1" d="M394.29,171.45a11,11,0,0,1-4.46-4.33,14.07,14.07,0,0,1,0-13.14,11.17,11.17,0,0,1,4.51-4.35,14.3,14.3,0,0,1,12.81,0,11.17,11.17,0,0,1,4.51,4.35,12.87,12.87,0,0,1,1.64,6.56,12.65,12.65,0,0,1-1.67,6.56,11.25,11.25,0,0,1-4.54,4.35,13.58,13.58,0,0,1-6.43,1.51A13.18,13.18,0,0,1,394.29,171.45Zm10-6.45a6.16,6.16,0,0,0,1.5-4.46,6.31,6.31,0,0,0-1.45-4.46,4.92,4.92,0,0,0-6.95-.21l-.22.21a7.75,7.75,0,0,0,0,8.94,4.55,4.55,0,0,0,3.53,1.56,4.78,4.78,0,0,0,3.61-1.6Z"/><path class="cls-1" d="M427.91,149.34a8.42,8.42,0,0,1,4.33-1.14V156h-2a6.25,6.25,0,0,0-4.16,1.2c-.92.79-1.39,2.18-1.39,4.17v11.22h-7.4V148.46h7.4v4A9.9,9.9,0,0,1,427.91,149.34Z"/><path class="cls-1" d="M473.79,151a10.38,10.38,0,0,1,2.66,7.57v14.12h-7.36V159.5a5,5,0,0,0-1.24-3.62,5.18,5.18,0,0,0-6.79,0,5,5,0,0,0-1.24,3.62v13.12h-7.36V159.5a5,5,0,0,0-1.23-3.62,5.19,5.19,0,0,0-6.8,0,5,5,0,0,0-1.23,3.62v13.12h-7.41V148.46h7.41v3a8,8,0,0,1,2.94-2.4,9.26,9.26,0,0,1,4.11-.89,10.07,10.07,0,0,1,4.87,1.17,8.41,8.41,0,0,1,3.36,3.33,9.86,9.86,0,0,1,3.42-3.25,9.29,9.29,0,0,1,4.72-1.25A9.56,9.56,0,0,1,473.79,151Z"/><path class="cls-1" d="M481.58,154a10.47,10.47,0,0,1,3.83-4.33,10,10,0,0,1,5.41-1.52,9.42,9.42,0,0,1,4.48,1,7.59,7.59,0,0,1,3,2.73v-3.42h7.41V172.6H498.3v-3.42a7.93,7.93,0,0,1-3,2.72,9.19,9.19,0,0,1-4.48,1,9.83,9.83,0,0,1-5.37-1.53,10.55,10.55,0,0,1-3.83-4.38,15.92,15.92,0,0,1,0-13Zm15.15,2.2a5,5,0,0,0-3.74-1.6,5,5,0,0,0-3.75,1.58,6,6,0,0,0-1.53,4.35,6.13,6.13,0,0,0,1.53,4.4,5.15,5.15,0,0,0,7.29.2l.2-.2a7,7,0,0,0,0-8.75Z"/><path class="cls-1" d="M515.24,171.88a9.62,9.62,0,0,1-3.89-3,7.84,7.84,0,0,1-1.61-4.23h7.32a2.82,2.82,0,0,0,1.17,2,4.11,4.11,0,0,0,2.56.78,3.59,3.59,0,0,0,2.14-.54,1.67,1.67,0,0,0,.76-1.41,1.65,1.65,0,0,0-1.09-1.5,22.22,22.22,0,0,0-3.5-1.1,31.16,31.16,0,0,1-4.33-1.28,7.39,7.39,0,0,1-3-2.12,5.72,5.72,0,0,1-1.26-3.92,6.66,6.66,0,0,1,1.15-3.79,7.78,7.78,0,0,1,3.38-2.7,13,13,0,0,1,5.3-1,10.73,10.73,0,0,1,7.17,2.25,8.82,8.82,0,0,1,3,6h-6.84a3,3,0,0,0-1.11-2,3.81,3.81,0,0,0-2.44-.74,3.44,3.44,0,0,0-2,.5,1.58,1.58,0,0,0-.69,1.36,1.67,1.67,0,0,0,1.11,1.56,17.16,17.16,0,0,0,3.44,1,39.44,39.44,0,0,1,4.37,1.36,7.7,7.7,0,0,1,3,2.17,6.12,6.12,0,0,1,1.32,4,6.34,6.34,0,0,1-1.19,3.79,7.88,7.88,0,0,1-3.42,2.62,12.94,12.94,0,0,1-5.18.95A13.79,13.79,0,0,1,515.24,171.88Z"/><path class="cls-1" d="M535.74,144.8a3.73,3.73,0,0,1-1.23-2.84,3.8,3.8,0,0,1,1.23-2.88,4.56,4.56,0,0,1,3.19-1.14,4.48,4.48,0,0,1,3.14,1.14,3.79,3.79,0,0,1,1.23,2.9,3.73,3.73,0,0,1-1.23,2.84,4.43,4.43,0,0,1-3.14,1.15A4.53,4.53,0,0,1,535.74,144.8Zm6.87,3.66v24.16H535.2V148.46Z"/><path class="cls-1" d="M576.94,144.13a13.67,13.67,0,0,1,5.57,5.35,16.93,16.93,0,0,1,0,15.86,13.52,13.52,0,0,1-5.59,5.37,17.65,17.65,0,0,1-8.38,1.91H557.16v-30.4h11.38A17.75,17.75,0,0,1,576.94,144.13Zm-2.34,19.78a8.63,8.63,0,0,0,2.34-6.49,8.12,8.12,0,0,0-7.28-8.88,8.45,8.45,0,0,0-1.59,0h-3.51v17.67h3.51A8.86,8.86,0,0,0,574.6,163.91Z"/><path class="cls-1" d="M611.28,162.31H594.52a5.12,5.12,0,0,0,1.45,3.45,4.45,4.45,0,0,0,3.14,1.19,3.88,3.88,0,0,0,3.85-2.34h7.88a10.62,10.62,0,0,1-2.18,4.28,10.94,10.94,0,0,1-4,3,12.71,12.71,0,0,1-5.33,1.08,13,13,0,0,1-6.32-1.51,10.68,10.68,0,0,1-4.33-4.33,14.72,14.72,0,0,1,0-13.16,10.64,10.64,0,0,1,4.31-4.33,14,14,0,0,1,12.59,0,10.65,10.65,0,0,1,4.27,4.2,12.77,12.77,0,0,1,1.54,6.37C611.39,160.88,611.35,161.6,611.28,162.31Zm-7.45-4.11a3.82,3.82,0,0,0-1.3-3,4.82,4.82,0,0,0-3.25-1.13,4.74,4.74,0,0,0-3.14,1.09,4.84,4.84,0,0,0-1.58,3.07Z"/><path class="cls-1" d="M650,148.46l-6.54,24.16h-8.19L631.45,157l-3.94,15.68h-8.14l-6.58-24.16h7.41l3.42,17.27,4.07-17.27h7.83l4.12,17.19L643,148.46Z"/><path class="cls-1" d="M652.73,154a10.57,10.57,0,0,1,3.84-4.33,10,10,0,0,1,5.41-1.52,9.42,9.42,0,0,1,4.48,1,7.73,7.73,0,0,1,3,2.73v-3.42h7.4V172.6h-7.4v-3.42a8.09,8.09,0,0,1-3,2.72,9.19,9.19,0,0,1-4.48,1,9.8,9.8,0,0,1-5.37-1.53,10.64,10.64,0,0,1-3.84-4.38,16,16,0,0,1,0-13Zm15.16,2.2a5.21,5.21,0,0,0-7.37-.12l-.12.12a6,6,0,0,0-1.54,4.35,6.1,6.1,0,0,0,1.54,4.4,5.15,5.15,0,0,0,7.29.2c.07-.07.14-.13.2-.2A7,7,0,0,0,667.89,156.18Z"/><path class="cls-1" d="M703.7,151a10.76,10.76,0,0,1,2.53,7.55v14.12h-7.36V159.5a5.3,5.3,0,0,0-1.26-3.77,4.93,4.93,0,0,0-6.75,0,5.35,5.35,0,0,0-1.26,3.77v13.12h-7.4V148.46h7.4v3.2a7.91,7.91,0,0,1,3-2.53,9.78,9.78,0,0,1,4.29-.93A8.75,8.75,0,0,1,703.7,151Z"/><path class="cls-1" d="M738.18,172.62,728,159.2v13.42h-7.4v-30.4H728v13.34l10.14-13.34h8.7L735,157.12l12.21,15.5Z"/><path class="cls-1" d="M773.38,162.31H756.63a5,5,0,0,0,1.45,3.45,4.45,4.45,0,0,0,3.14,1.19,3.89,3.89,0,0,0,3.85-2.34H773a10.52,10.52,0,0,1-2.19,4.28,10.75,10.75,0,0,1-4,3,12.67,12.67,0,0,1-5.32,1.08,13.05,13.05,0,0,1-6.33-1.51,10.81,10.81,0,0,1-4.33-4.33,14.85,14.85,0,0,1,0-13.16,10.64,10.64,0,0,1,4.31-4.33,14,14,0,0,1,12.6,0,10.65,10.65,0,0,1,4.27,4.2,12.87,12.87,0,0,1,1.53,6.37A17.14,17.14,0,0,1,773.38,162.31Zm-7.44-4.11a3.83,3.83,0,0,0-1.3-3,4.82,4.82,0,0,0-3.25-1.13,4.67,4.67,0,0,0-3.14,1.09,4.81,4.81,0,0,0-1.58,3.07Z"/><path class="cls-1" d="M788.06,149.34a8.42,8.42,0,0,1,4.33-1.14V156h-2a6.25,6.25,0,0,0-4.16,1.2c-.92.79-1.39,2.18-1.39,4.17v11.22h-7.4V148.46h7.4v4A9.9,9.9,0,0,1,788.06,149.34Z"/><path class="cls-1" d="M803.34,175.74q0,4.45-2.25,6.43a9.19,9.19,0,0,1-6.27,2h-2.9v-6.28h1.77a2.49,2.49,0,0,0,1.73-.48,2,2,0,0,0,.52-1.56V148.46h7.4Zm-6.9-30.94a3.73,3.73,0,0,1-1.23-2.84,3.8,3.8,0,0,1,1.23-2.88,4.95,4.95,0,0,1,6.32,0,4,4,0,0,1,0,5.74,4.43,4.43,0,0,1-3.14,1.15,4.51,4.51,0,0,1-3.19-1.17Z"/><path class="cls-1" d="M808.61,154a10.41,10.41,0,0,1,3.83-4.33,10,10,0,0,1,5.41-1.52,9.42,9.42,0,0,1,4.48,1,7.73,7.73,0,0,1,3,2.73v-3.42h7.4V172.6h-7.4v-3.42a8.09,8.09,0,0,1-3,2.72,9.19,9.19,0,0,1-4.48,1,9.8,9.8,0,0,1-5.37-1.53,10.55,10.55,0,0,1-3.83-4.38,15.92,15.92,0,0,1,0-13Zm15.15,2.2a5.21,5.21,0,0,0-7.37-.12l-.12.12a6,6,0,0,0-1.54,4.35,6.1,6.1,0,0,0,1.54,4.4,5.15,5.15,0,0,0,7.29.2c.07-.07.14-.13.2-.2A7,7,0,0,0,823.76,156.18Z"/></g></g></svg>