<svg xmlns="http://www.w3.org/2000/svg" viewBox="0 0 664.27 101.71"><defs><style>.cls-1{fill:#fff;}</style></defs><g id="Layer_2" data-name="Layer 2"><g id="Layer_1-2" data-name="Layer 1"><g id="Layer_2-2" data-name="Layer 2"><g id="Layer_1-2-2" data-name="Layer 1-2"><path class="cls-1" d="M12.53,93.44Q1,85.1,0,69H33q.7,8.55,7.56,8.54a7.5,7.5,0,0,0,4.27-1.19,4.19,4.19,0,0,0,1.75-3.71q0-3.5-3.78-5.67A75.1,75.1,0,0,0,31,62,129,129,0,0,1,15.3,55.41,30.42,30.42,0,0,1,4.62,46.06Q.13,39.9.28,30.24a27.07,27.07,0,0,1,5-16.44A30.59,30.59,0,0,1,18.83,3.51,50.76,50.76,0,0,1,38.21,0q18.2,0,28.9,8.4T78.38,32.06H44.93q-.15-4.2-2.1-6a6.73,6.73,0,0,0-4.76-1.82,4.22,4.22,0,0,0-3.22,1.33,5.17,5.17,0,0,0-1.26,3.71c0,2.24,1.24,4.09,3.71,5.53A84.73,84.73,0,0,0,49.13,40a132.26,132.26,0,0,1,15.46,6.72,32.72,32.72,0,0,1,10.57,9q4.49,5.73,4.48,14.41a29.4,29.4,0,0,1-17.5,27.57q-8.53,4-20.29,4Q24.08,101.76,12.53,93.44Z"/><path class="cls-1" d="M149.62,1.69v99.09H118.55V1.69Z"/><path class="cls-1" d="M260.12,8a44.25,44.25,0,0,1,18,17.49A51.06,51.06,0,0,1,284.41,51a51.61,51.61,0,0,1-6.3,25.47,45.39,45.39,0,0,1-18,17.85q-11.69,6.48-27.22,6.5H191.61V1.69H232.9Q248.44,1.69,260.12,8ZM246.76,67.33q6.15-5.73,6.16-16.37t-6.16-16.38q-6.16-5.73-16.66-5.74h-7.42V73.07h7.42Q240.6,73.07,246.76,67.33Z"/><path class="cls-1" d="M354.67,26.46V38.64h30.79V62H354.67V76h35v24.77H323.6V1.69h66.06V26.46Z"/><path class="cls-1" d="M489.32,100.78l-28.84-43v43H429.41V1.69h31.07V43.4L488.9,1.69H524L489.88,49.14l36.39,51.64Z"/><path class="cls-1" d="M626.62,85.81h-33l-4.9,15H556.08L592.33,1.69h35.83l36.11,99.09H631.52Zm-7.56-23.38-9-27.57-9,27.57Z"/></g></g></g></g></svg>